# xmcd
#
# Track frame offsets:
#	150
#	9597
#	14757
#	33490
#	48127
#	54437
#	61392
#	70687
#	76380
#	88025
#	102855
#	131330
#	149357
#	162870
#	184917
#	196862
#	217582
#	238920
#	262777
#	279452
#	300247
#	320067
#
# Disc length: 4462 seconds
#
# Revision: 1
# Processed by: cddbd v1.5.1PL0 Copyright (c) Steve Scherf et al.
# Submitted via: CDex 1.50Beta5
#
DISCID=26116c16
DTITLE=サントラ - ドリームメーカー・オリジナル・サウンドトラック
DYEAR=1999
DGENRE=
TTITLE0=サントラ/Opening Theme
TTITLE1=サントラ/Rushing Beat
TTITLE2=ラー・バンド/RUN 4 THE SUN
TTITLE3=カイリー・ミノーグ/LOCOMOTION,THE
TTITLE4=サントラ/RED HEAT
TTITLE5=サントラ/Seducing Woman
TTITLE6=サントラ/Raging Riders
TTITLE7=サントラ/Seafront
TTITLE8=サントラ/For The Dream
TTITLE9=ピート・シェリー/TELEPHONE OPERATOR
TTITLE10=マックス・ヒム/LADY FANTASY
TTITLE11=カイリー・ミノーグ/ESPECIALLY FOR YOU
TTITLE12=エリーシャ・ラバーン/Your Love Sends Me
TTITLE13=アレフ/FIRE ON THE MOON
TTITLE14=サントラ/Goddess Is Watching You
TTITLE15=レイブマン/PUMPIN’
TTITLE16=レイブマン/RAVEMAN’S THEME
TTITLE17=マキシマイザー/I LIKE IT(GIVE IT TO ME)
TTITLE18=サントラ/End Of Grief
TTITLE19=エリーシャ・ラバーン/I’m Not Dreaming
TTITLE20=DA PUMP/Strawberry Letter
TTITLE21=DA PUMP/We can’t stop the music(TV MIX)
EXTD=
EXTT0=
EXTT1=
EXTT2=
EXTT3=
EXTT4=
EXTT5=
EXTT6=
EXTT7=
EXTT8=
EXTT9=
EXTT10=
EXTT11=
EXTT12=
EXTT13=
EXTT14=
EXTT15=
EXTT16=
EXTT17=
EXTT18=
EXTT19=
EXTT20=
EXTT21=
PLAYORDER=
